<svg version="1.2" xmlns="http://www.w3.org/2000/svg" viewBox="0 0 925 531" width="925" height="531">
	<title>Fingerprint illustration</title>
	<style>
		.s0 { fill: #9e8ce2 } 
		.s1 { fill: #e6e6e6 } 
		.s2 { fill: #2f2e41 } 
		.s3 { fill: #3f3d56 } 
		.s4 { fill: #ffffff } 
	</style>
	<path class="s0" d="m16.1 159.3c-2.1 0.6-4.3 0.7-6.4 0.2-2.1-0.4-4.1-1.5-5.7-3-1.6-1.4-2.8-3.3-3.4-5.4-0.7-2.1-0.8-4.3-0.3-6.4 7.2-30.1 34.7-103.6 134.8-134.5 43.3-13.4 84.9-13.6 123.5-0.7 31.7 10.6 52.8 27.2 62.9 35.2 1.2 1 2.3 2.3 3.1 3.7 0.8 1.4 1.3 2.9 1.5 4.6 0.1 1.6 0 3.2-0.4 4.7-0.5 1.6-1.2 3.1-2.2 4.3q-0.1 0.1-0.1 0.1c-1 1.3-2.3 2.3-3.7 3.1-1.5 0.8-3 1.3-4.7 1.5-1.6 0.2-3.2 0.1-4.8-0.4-1.6-0.4-3.1-1.2-4.4-2.2-18.2-14.4-73.6-58.1-163.5-30.3-87.7 27-111.5 90.4-117.7 116.3q-0.3 1.7-1.1 3.1-0.8 1.5-1.9 2.7-1.1 1.2-2.5 2-1.4 0.9-3 1.4z"/>
	<path class="s0" d="m288.9 329.5q-0.4 0.1-0.8 0.2-0.4 0.1-0.7 0.2-0.4 0-0.8 0.1-0.4 0-0.8 0.1c-78.2 4.2-127.9-60.8-130-63.5l-0.3-0.6c-1.3-1.9-31.4-47.7-18.1-84.1 6.1-16.6 19.5-28.3 40.1-34.6 19.1-6 34.8-4.2 48.1 5.3 10.9 7.8 17.9 19.3 24.7 30.5 14.1 23.2 22.8 35 49.6 28.2 11.8-3 17.3-12.2 19.8-19.4 6.8-19.5 0.8-46.2-15.1-66.3-20.5-26.1-77.8-69.5-148.6-47.7-30.2 9.4-55 27.8-71.5 53.1-13.8 21-21.7 47.1-21.9 71.5-0.3 45.3 36.9 105 37.2 105.5 0.9 1.4 1.5 2.9 1.7 4.5 0.3 1.6 0.2 3.2-0.1 4.8-0.4 1.6-1.1 3.1-2 4.4-0.9 1.3-2.1 2.4-3.5 3.3q0 0-0.1 0c-1.4 0.9-2.9 1.5-4.5 1.8-1.7 0.2-3.3 0.2-4.9-0.2-1.6-0.3-3.1-1-4.5-1.9-1.3-1-2.4-2.1-3.3-3.5-1.7-2.7-41.4-66.3-41.1-118.8 0.5-56.8 35-124.5 111.2-148.1 35.2-10.9 72.2-9 107 5.3 27 11.1 52 29.5 68.5 50.6 21.1 26.8 28.6 62 19 89.5-6.4 18.3-19.7 30.9-37.3 35.4-45.9 11.7-63.9-17.7-77-39.2-13.5-22-20.9-32.3-44.2-25.1-12.8 4-20.7 10.3-24 19.4-4.5 12.4-0.2 28.3 4.1 39.5q0.1 0.2 0.2 0.4 2.1 5.3 4.8 10.3 2.6 5 5.9 9.7 3.2 4.7 6.9 9 3.8 4.4 8 8.2c18 16.6 51.4 40.4 94.1 38.1 1.6-0.1 3.2 0.1 4.7 0.6 1.6 0.5 3 1.4 4.2 2.4 1.2 1.1 2.2 2.4 2.9 3.8 0.7 1.5 1.1 3.1 1.2 4.7q0 0 0 0.1 0.1 2.1-0.5 4.1-0.6 2-1.8 3.6-1.2 1.7-2.9 3-1.7 1.2-3.6 1.8z"/>
	<path class="s0" d="m194.1 352.8q-1.3 0.4-2.5 0.5-1.3 0.2-2.6 0-1.2-0.1-2.5-0.5-1.2-0.4-2.3-1c-38.6-21.8-65.6-51.2-85.1-92.4l-0.1-0.3c-12.3-27.4-19.7-69.4-3.4-104.8 12.1-26.2 34.7-44.6 67.1-54.6 38.4-11.8 74.1-3.1 103.4 25.1q5 4.9 9.5 10.2 4.5 5.3 8.5 11 4.1 5.7 7.5 11.7 3.5 6.1 6.5 12.4c1.2 3 1.2 6.5 0 9.5-1.3 3-3.7 5.5-6.7 6.8-3.1 1.2-6.5 1.3-9.5 0.1-3.1-1.2-5.5-3.6-6.9-6.6q-2.5-5.3-5.4-10.3-2.9-5.1-6.3-9.8-3.4-4.8-7.2-9.2-3.8-4.4-8-8.5c-22.6-21.4-48.9-27.8-78.2-18.8-25.3 7.9-42.7 21.7-51.6 41.1-12.9 28-6.3 63 3.3 84.5 17.2 36.4 41 62.3 75 81.5 1.4 0.7 2.6 1.8 3.6 3.1 1 1.2 1.7 2.7 2.2 4.2 0.4 1.6 0.5 3.2 0.3 4.8-0.2 1.6-0.7 3.1-1.5 4.5q0 0.1-0.1 0.2-0.5 1-1.3 1.9-0.8 0.9-1.7 1.6-0.9 0.7-1.9 1.2-1 0.6-2.1 0.9z"/>
	<path fill-rule="evenodd" class="s1" d="m198.1 229.7c-8.8 0-15.9-7.1-15.9-15.9 0-8.9 7.1-16 15.9-16 8.8 0 16 7.1 16 16 0 8.8-7.2 15.9-16 15.9z"/>
	<path class="s0" d="m485.7 408.5q-0.1 0-0.2 0-0.2 0-0.3 0-0.1 0-0.2 0-0.2 0-0.3-0.1-0.6 0-1.2-0.3-0.6-0.2-1.2-0.5-0.5-0.3-1-0.8-0.5-0.4-0.8-0.9l-8.8-11.9q-0.8-1-1.1-2.3-0.3-1.3-0.1-2.5 0.2-1.3 0.9-2.4 0.6-1.1 1.7-1.9l74.9-55.2q1-0.8 2.3-1.1 1.2-0.3 2.5-0.1 1.3 0.2 2.4 0.8 1.1 0.7 1.9 1.7l8.7 11.9q0.8 1.1 1.1 2.3 0.3 1.3 0.1 2.5-0.2 1.3-0.8 2.4-0.7 1.1-1.8 1.9l-74.9 55.2q-0.4 0.4-0.8 0.6-0.5 0.2-1 0.4-0.5 0.2-1 0.2-0.5 0.1-1 0.1z"/>
	<path class="s2" d="m538.9 364l-11.5-15.5q-0.7-1-1-2.1-0.2-1.2-0.1-2.4 0.2-1.1 0.8-2.2 0.6-1 1.6-1.7l43.9-38.4q0.9-0.7 2.1-1 1.1-0.3 2.3-0.1 1.2 0.2 2.2 0.8 1 0.6 1.8 1.5l20.9 25.1q0.7 1 1 2.1 0.3 1.2 0.1 2.3-0.2 1.2-0.8 2.3-0.6 1-1.6 1.7l-53.3 28.9q-1 0.7-2.1 1-1.2 0.3-2.4 0.1-1.2-0.2-2.2-0.8-1-0.6-1.7-1.6z"/>
	<path class="s0" d="m609.4 530.3h-14.8q-1.3-0.1-2.5-0.5-1.2-0.5-2.1-1.5-0.9-0.9-1.4-2.1-0.5-1.2-0.5-2.4v-123.1q0-1.3 0.5-2.4 0.5-1.2 1.4-2.2 0.9-0.9 2.1-1.4 1.2-0.5 2.5-0.5h14.8q1.3 0 2.5 0.5 1.2 0.5 2.1 1.4 0.9 1 1.4 2.2 0.5 1.1 0.5 2.4v123.1q0 1.2-0.5 2.4-0.5 1.2-1.4 2.1-0.9 1-2.1 1.5-1.2 0.4-2.5 0.5z"/>
	<path class="s0" d="m638.6 530.3h-14.8q-1.3-0.1-2.5-0.5-1.2-0.5-2.1-1.5-0.9-0.9-1.4-2.1-0.5-1.2-0.5-2.4v-123.1q0-1.3 0.5-2.4 0.5-1.2 1.4-2.2 0.9-0.9 2.1-1.4 1.2-0.5 2.5-0.5h14.8q1.3 0 2.5 0.5 1.1 0.5 2.1 1.4 0.9 1 1.4 2.2 0.5 1.1 0.5 2.4v123.1q0 1.2-0.5 2.4-0.5 1.2-1.4 2.1-1 1-2.1 1.5-1.2 0.4-2.5 0.5z"/>
	<path fill-rule="evenodd" class="s3" d="m452.9 528.4h324.1v2.2h-324.1z"/>
	<path fill-rule="evenodd" class="s0" d="m610.2 249.3c-29.6 0-53.5-24-53.5-53.6 0-29.6 23.9-53.5 53.5-53.5 29.6 0 53.5 23.9 53.5 53.5 0 29.6-23.9 53.6-53.5 53.6z"/>
	<path class="s2" d="m693.1 467.2l-31-137.7v-32.5q0-1.6-0.6-3.1-0.6-1.4-1.8-2.5-1.1-1.2-2.6-1.8-1.4-0.6-3-0.6h-29.7v-20.9q0-1.6-0.6-3.1-0.6-1.4-1.8-2.6-1.1-1.1-2.6-1.7-1.4-0.6-3-0.6h-16q-1.6 0-3.1 0.6-1.4 0.6-2.6 1.7-1.1 1.2-1.7 2.6-0.6 1.5-0.6 3.1v20.9h-29.7q-1.6 0-3.1 0.6-1.4 0.6-2.6 1.8-1.1 1.1-1.7 2.5-0.6 1.5-0.6 3.1v171.1q0 0.4 0 0.8 0.1 0.3 0.1 0.7 0.1 0.4 0.2 0.8 0.1 0.3 0.3 0.7 0.3 1.3 0.9 2.4 0.7 1.1 1.7 2 1 0.8 2.2 1.3 1.2 0.4 2.6 0.5l125.4 4.2c7.5 0.2 10.9-9.6 5-14.3z"/>
	<path class="s2" d="m610.7 214.8c-3.3-0.1-7.4-0.3-10.6-2.6q-0.7-0.5-1.2-1.2-0.6-0.7-1-1.4-0.4-0.8-0.7-1.7-0.2-0.8-0.3-1.7 0-0.7 0.1-1.3 0.1-0.6 0.3-1.2 0.3-0.6 0.7-1.1 0.3-0.5 0.8-0.9c1.7-1.4 4.1-1.8 6.7-1l-2.7-19.7 2-0.3 3.1 23.2-1.6-0.8c-1.9-0.8-4.6-1.3-6.2 0.1q-0.3 0.3-0.5 0.6-0.3 0.3-0.4 0.7-0.2 0.4-0.2 0.8-0.1 0.4-0.1 0.8 0.1 0.7 0.3 1.3 0.1 0.6 0.4 1.2 0.3 0.6 0.8 1.1 0.4 0.5 0.9 0.9c2.5 1.8 5.8 2.1 9.5 2.2z"/>
	<path fill-rule="evenodd" class="s2" d="m582.2 182.7h10.8v2h-10.8z"/>
	<path fill-rule="evenodd" class="s2" d="m616.2 182.7h10.8v2h-10.8z"/>
	<path class="s2" d="m563.3 161.1c-9.5-5.7-13.9-16.6-13.9-27.5q0-4.3 0.9-8.5 0.9-4.2 2.7-8.1 1.8-4 4.5-7.4 2.6-3.4 5.9-6.2c9.8-8.5 22.8-12.6 35.5-13.7 15.5-1.3 30.8 2.1 45.5 6.4 15.7 4.5 31.2 10.3 47.3 13.5 15.7 3.1 31.4 3.4 46.8-1.1 14.2-4.1 28.7-11.5 43.9-10.2 13.1 1.1 23 9.8 29.8 20.6 13.3 21.5 14.3 50.2 33.5 68 8.2 7.8 19 11.3 29.8 13.9 10.3 2.5 21.4 4.1 30.8 9.1 10.2 5.5 16.4 15.7 14.8 27.4-1.8 13.3-11.3 24.7-21.7 32.5-5.5 4.1-11.4 7.5-17.6 10.3-6.2 2.7-12.7 4.7-19.4 6-6.7 1.4-13.5 1.9-20.3 1.7-6.8-0.2-13.5-1.1-20.1-2.8-27.6-7.4-50.1-28.8-79.5-30.1-16.5-0.8-32.6 3.7-49 3-11.4-0.5-23.7-4.8-31.6-13.2q-1.4-1.5-2.6-3.2-1.1-1.7-2-3.5-0.9-1.9-1.4-3.9-0.5-1.9-0.8-4c-0.1-1.9-3.1-1.9-3 0 1.2 12 10 20.8 20.5 25.7q2 0.9 4.2 1.7 2.1 0.8 4.3 1.4 2.2 0.6 4.4 1 2.3 0.5 4.5 0.7c8.1 0.9 16.3 0 24.3-0.8 8.4-1 16.9-2.1 25.4-2q2.9 0.1 5.8 0.3 2.9 0.3 5.8 0.8 2.9 0.5 5.7 1.3 2.8 0.7 5.6 1.7c14.1 4.8 26.8 12.8 40.3 19.1 13 6 26.7 9.8 41.1 9.9q5.2 0 10.4-0.5 5.2-0.6 10.2-1.7 5.1-1.1 10.1-2.7 4.9-1.6 9.7-3.8c12.4-5.7 24.2-14.1 31.9-25.6 7.3-10.7 11.1-24.8 4.6-36.8-5.1-9.4-14.9-14.2-24.8-17.1-11-3.2-22.4-4.7-33.1-8.8q-2.1-0.7-4.2-1.7-2-0.9-3.9-2.1-1.9-1.1-3.7-2.5-1.8-1.3-3.4-2.8-1.8-1.7-3.4-3.6-1.6-1.8-3.1-3.8-1.4-2-2.7-4.1-1.3-2.2-2.3-4.4c-6.2-12-9.3-25.1-14.5-37.5-4.8-11.4-11.3-23-21.9-30q-2.1-1.4-4.4-2.5-2.3-1.1-4.7-1.9-2.4-0.8-4.9-1.2-2.5-0.5-5-0.6c-7.6-0.3-15 1.4-22.2 3.6-7.5 2.3-14.9 5.1-22.5 7.3q-3 0.8-6.1 1.4-3.1 0.6-6.2 1-3.1 0.4-6.2 0.5-3.1 0.1-6.2 0c-17.1-0.5-33.7-5.6-49.9-10.8-28.4-8.9-60-18.6-88.5-4.7-11.1 5.4-20.5 14.4-24.5 26.3-3.5 10.5-3 22.8 2.4 32.6q0.9 1.8 2.1 3.4 1.2 1.6 2.6 3 1.3 1.4 2.9 2.7 1.5 1.2 3.2 2.2c1.7 1 3.2-1.6 1.5-2.6z"/>
	<path class="s0" d="m646.1 428.6h-14.8q-1.3 0-2.5-0.5-1.2-0.5-2.1-1.4-0.9-0.9-1.4-2.1-0.5-1.2-0.5-2.5v-85.3q0-1.3 0.5-2.4 0.5-1.2 1.4-2.2 0.9-0.9 2.1-1.4 1.2-0.5 2.5-0.5h14.8q1.3 0 2.5 0.5 1.2 0.5 2.1 1.4 0.9 1 1.4 2.2 0.5 1.1 0.5 2.4v85.3q0 1.3-0.5 2.5-0.5 1.2-1.4 2.1-0.9 0.9-2.1 1.4-1.2 0.5-2.5 0.5z"/>
	<path class="s2" d="m589.1 147.9c0.3 2.4 1.3 4.6 2.8 6.4 1.6 1.8 3.6 3.2 5.8 3.9 2.3 0.8 4.7 0.9 7 0.3 2.3-0.5 4.4-1.7 6.1-3.4l-2.5-0.7c1.4 3.6 3.7 6.8 6.8 9.1 3 2.4 6.6 3.8 10.4 4.3 3.8 0.4 7.7-0.2 11.2-1.7 3.5-1.6 6.5-4.1 8.7-7.3 1.1-1.5-1.5-3-2.6-1.5-1.9 2.7-4.4 4.8-7.4 6.1-3 1.3-6.3 1.8-9.5 1.4-3.2-0.3-6.3-1.6-8.9-3.5-2.6-2-4.6-4.6-5.8-7.7q-0.2-0.3-0.4-0.6-0.3-0.3-0.7-0.4-0.4-0.1-0.8 0-0.4 0.1-0.6 0.4c-1.3 1.3-3 2.2-4.8 2.6-1.8 0.4-3.7 0.3-5.4-0.3-1.8-0.6-3.3-1.7-4.5-3.1-1.1-1.5-1.8-3.2-2-5.1-0.3-1.9-3.1-1.1-2.9 0.8z"/>
	<path id="f6ad8881-531f-450f-af8c-ee430f91c944-67" class="s3" d="m494.6 360.9l-0.4 0.2-5.8-8.6q-0.6-0.9-1.6-1.6-1-0.7-2.2-0.9-1.2-0.2-2.3 0-1.2 0.3-2.2 0.9l-18.1 12.3q-1 0.7-1.7 1.7-0.6 1-0.9 2.2-0.2 1.1 0.1 2.3 0.2 1.2 0.9 2.2l31.8 47q0.7 0.9 1.7 1.6 1 0.7 2.2 0.9 1.1 0.2 2.3 0 1.2-0.3 2.1-0.9l18.2-12.3q1-0.7 1.6-1.7 0.7-1 0.9-2.2 0.2-1.1 0-2.3-0.2-1.2-0.9-2.2l-21.9-32.3 0.3-0.2z"/>
	<path id="fc886b53-8f7f-459a-8f46-dc88972f03c0-68" class="s4" d="m481.5 353.2l-2.3 1.5q0.4 0.3 0.7 0.8 0.2 0.4 0.2 0.9 0 0.5-0.2 1-0.3 0.4-0.7 0.7l-10.1 6.9q-0.4 0.2-0.9 0.3-0.5 0.1-1-0.1-0.5-0.2-0.8-0.6-0.3-0.4-0.4-0.9l-2.2 1.4q-0.7 0.5-1.2 1.2-0.4 0.8-0.6 1.6-0.2 0.8 0 1.7 0.2 0.8 0.7 1.5l30.8 45.5q0.5 0.7 1.2 1.2 0.7 0.4 1.5 0.6 0.9 0.2 1.7 0 0.9-0.2 1.6-0.7l17.6-11.9q0.7-0.5 1.2-1.2 0.5-0.8 0.7-1.6 0.1-0.9-0.1-1.7-0.1-0.8-0.6-1.6l-30.8-45.4q-0.5-0.7-1.2-1.2-0.7-0.4-1.6-0.6-0.8-0.2-1.7 0-0.8 0.2-1.5 0.7z"/>
</svg>